<svg xmlns="http://www.w3.org/2000/svg" data-name="Layer 1" viewBox="0 0 100 100" x="0px" y="0px"><path d="M90.2196,31.287l-23.68024-8.6189a3.14486,3.14486,0,0,0-3.43677.88263L46.84583,20.6842A3.14358,3.14358,0,0,0,43.43445,22.5H27.4a3.15,3.15,0,0,0-3.15,3.15v0.486L13.337,28.06018a3.15,3.15,0,0,0-2.55518,3.64911l7.41479,42.05127a3.15,3.15,0,0,0,3.64917,2.55518L46.663,71.93982A3.13583,3.13583,0,0,0,47.79462,71.5H52.6c0.05591,0,.10809-0.01361.16327-0.01648l8.97906,1.58325,11.71832,4.26514A3.15,3.15,0,0,0,77.498,75.44922L92.10229,35.32434A3.1499,3.1499,0,0,0,90.2196,31.287ZM66.18024,23.65472l2.338,0.851-4.05536-.71509A2.086,2.086,0,0,1,66.18024,23.65472ZM46.66345,21.71826L51.09686,22.5H48.07355l-1.50122-.26471A1.56951,1.56951,0,0,0,45.392,22.5H44.65076A2.09131,2.09131,0,0,1,46.66345,21.71826ZM25.3,25.65a2.1,2.1,0,0,1,2.1-2.1H52.6a2.1,2.1,0,0,1,2.1,2.1v42.7a2.1,2.1,0,0,1-2.1,2.1H48.8064a3.13832,3.13832,0,0,0,.2525-0.525H52.6a1.57671,1.57671,0,0,0,1.575-1.575V25.65A1.5767,1.5767,0,0,0,52.6,24.075H40.27655a3.12187,3.12187,0,0,0-2.12238-.39081l-2.21637.39081H27.4a1.5767,1.5767,0,0,0-1.575,1.575v0.20825l-0.525.09253V25.65ZM55.28662,69.97375A3.121,3.121,0,0,0,55.75,68.35V47.07574A64.12027,64.12027,0,0,1,63.19952,31.4892a0.72936,0.72936,0,0,0,.36359.192c0.02191,0.00391.04462,0.00684,0.0672,0.00873a0.73961,0.73961,0,0,0,.5625-0.19617,39.00232,39.00232,0,0,1,5.1,14.06238L64.90759,70.42633a1.22649,1.22649,0,0,1-1.41913.99365Zm8.01117-39.06128,0.086-1.017a0.39839,0.39839,0,0,1,.42859-0.36206c0.01233,0.0011.02417,0.0025,0.036,0.00464a0.397,0.397,0,0,1,.32574.42389L64.0885,30.979A0.39675,0.39675,0,1,1,63.29779,30.91248Zm1.09747,0.2403a0.71324,0.71324,0,0,0,.04205-0.14417l0.08563-1.01709a0.74663,0.74663,0,0,0-1.488-.12561l-0.08606,1.01733a0.73626,0.73626,0,0,0,.03888.29681A63.38727,63.38727,0,0,0,55.75,45.96906V25.65a3.11507,3.11507,0,0,0-.40271-1.512l15.98138,2.818a1.22639,1.22639,0,0,1,.99365,1.41907l-2.844,16.12927A40.07166,40.07166,0,0,0,64.39526,31.15277ZM49.21814,68.29065l-2.919-16.55438a51.19965,51.19965,0,0,1,4.19769-7.80756,0.73636,0.73636,0,0,0,.55109.25964c0.02252,0,.0451-0.001.068-0.00305a0.7373,0.7373,0,0,0,.52545-0.30164A13.4526,13.4526,0,0,1,53.825,47.66882V68.35A1.22652,1.22652,0,0,1,52.6,69.575H49.1759A3.1322,3.1322,0,0,0,49.21814,68.29065ZM41.80334,26.23938A3.1205,3.1205,0,0,0,40.76453,24.425H52.6a1.2265,1.2265,0,0,1,1.225,1.225V46.7558a13.60039,13.60039,0,0,0-2.046-3.26318,0.69612,0.69612,0,0,0,.013-0.11841l-0.09192-1.01648a0.74681,0.74681,0,1,0-1.48755.13464l0.09229,1.01648c0.00177,0.01935.01227,0.035,0.01544,0.05383a51.4112,51.4112,0,0,0-4.13159,7.547Zm9.64,17.16626a0.39659,0.39659,0,1,1-.78992.07178l-0.09229-1.01648a0.39726,0.39726,0,0,1,.35925-0.431c0.01233-.001.02429-0.00171,0.03625-0.00171a0.39722,0.39722,0,0,1,.39478.361ZM33.953,24.425l-7.778,1.37152V25.65A1.2265,1.2265,0,0,1,27.4,24.425h6.553ZM21.66345,75.28168a2.1,2.1,0,0,1-2.43274-1.70343L11.81592,31.527a2.1,2.1,0,0,1,1.70343-2.43274l24.8172-4.376a2.10005,2.10005,0,0,1,2.43274,1.70343L48.18408,68.473a2.10005,2.10005,0,0,1-1.70343,2.43274Zm32.96033-4.53632A3.14728,3.14728,0,0,0,55.06451,70.29l8.36316,1.47467a1.5767,1.5767,0,0,0,1.82458-1.27753l7.41479-42.05133a1.57678,1.57678,0,0,0-1.27759-1.82458l-16.303-2.87463a3.155,3.155,0,0,0-.66724-0.65076l17.06146,3.00842A2.1,2.1,0,0,1,73.18408,28.527L65.76929,70.57825a2.1,2.1,0,0,1-2.43274,1.70343ZM67.54034,66.581l5.3208,1.726-0.07178-.30255c-0.11993-.5069-0.23633-1.02234-0.35144-1.53967a9.2356,9.2356,0,0,1,3.04132-.68463,0.74662,0.74662,0,0,0,.23572.78009l0.00031,0.00012a0.73655,0.73655,0,0,0,.22266.12872,0.7496,0.7496,0,0,0,.32239.04163l0.01233-.00354a18.93887,18.93887,0,0,1-3.352,8.35968l-7.08-2.5769a3.12168,3.12168,0,0,0,.96265-1.74939ZM79.39148,36.91382a0.71992,0.71992,0,0,0,.0863.0376,0.74081,0.74081,0,0,0,.48334.00824,0.72852,0.72852,0,0,0,.08441-0.04669c0.49133,2.91888.888,12.01611-7.80164,28.65173a56.86856,56.86856,0,0,1-1.19232-18.89716l0.81506-4.62238c0.20544-.8927.43152-1.7901,0.701-2.69653A28.83891,28.83891,0,0,1,78.996,36.26019,0.74052,0.74052,0,0,0,79.39148,36.91382Zm-0.01208-.84534,0.46631-.90839a0.39826,0.39826,0,0,1,.53387-0.17157,0.39771,0.39771,0,0,1,.17194.53394l-0.46631.90839a0.39831,0.39831,0,0,1-.53387.17163A0.39755,0.39755,0,0,1,79.37939,36.06848Zm-6.83423,2.1286,0.85236-4.8338,0.8811,0.30524A46.50631,46.50631,0,0,0,72.54517,38.19708ZM72.37775,67.78229L67.60168,66.233l2.81055-15.93945c-0.01837.45392-.04425,0.90509-0.05011,1.36371A66.35041,66.35041,0,0,0,72.37775,67.78229Zm3.51215-2.0495,0.65491-.783a0.39688,0.39688,0,0,1,.60858.50958l-0.65491.783A0.39688,0.39688,0,1,1,75.88989,65.73279Zm0.75153,0.835a0.72914,0.72914,0,0,0,.12531-0.1012l0.65491-.783a0.746,0.746,0,0,0-.63867-1.22217,0.73963,0.73963,0,0,0-.50647.26416l-0.575.68744a9.69042,9.69042,0,0,0-3.342.69452c9.136-17.332,8.51093-26.66626,7.9917-29.45959a0.72023,0.72023,0,0,0,.04547-0.0575l0.46631-.90839a0.74606,0.74606,0,0,0-.89319-1.05078,0.74073,0.74073,0,0,0-.43555.36926l-0.44263.86224a28.83821,28.83821,0,0,0-6.3775,2.98334,45.8694,45.8694,0,0,1,1.96185-5.209l0.07813-.17456-1.295-.44849,0.759-4.30481a3.13372,3.13372,0,0,0-.02539-1.207l15.36847,5.59363A1.22653,1.22653,0,0,1,90.2934,34.666L75.68915,74.79083A1.22655,1.22655,0,0,1,74.119,75.523l-0.86053-.31323A19.11635,19.11635,0,0,0,76.64142,66.56781ZM91.1156,34.96527L76.51135,75.09009a2.1,2.1,0,0,1-2.69159,1.25513l-8.89032-3.23584a3.15869,3.15869,0,0,0,.60535-0.33832l8.46454,3.08081a1.5767,1.5767,0,0,0,2.01868-.94128L90.62225,34.78571A1.57675,1.57675,0,0,0,89.681,32.767L74.06116,27.08185a3.15064,3.15064,0,0,0-.34-0.6825l16.13934,5.87427A2.1,2.1,0,0,1,91.1156,34.96527Z"/><circle cx="18.31169" cy="39.15031" r="0.525" transform="translate(-6.51951 3.7741) rotate(-9.99891)"/><path d="M33.32312,56.06006l-6.50653,1.14728a0.175,0.175,0,1,0,.06073.34467l6.50659-1.14728A0.175,0.175,0,1,0,33.32312,56.06006Z"/><path d="M32.35687,58.30212l-5.186.91443a0.175,0.175,0,1,0,.06079.34467l5.186-.91443A0.175,0.175,0,1,0,32.35687,58.30212Z"/><path d="M31.50812,60.52344l-3.983.70227a0.175,0.175,0,0,0,.06079.34473l3.983-.70233A0.175,0.175,0,1,0,31.50812,60.52344Z"/><path d="M42.69952,69.6178a3.675,3.675,0,1,0-4.25732-2.981A3.67906,3.67906,0,0,0,42.69952,69.6178ZM38.78687,66.576a3.325,3.325,0,1,1,3.85187,2.69708A3.32882,3.32882,0,0,1,38.78687,66.576Z"/><path d="M46.38947,70.38873a1.57675,1.57675,0,0,0,1.27759-1.82458L42.49939,39.257l-0.06171-.35-2.18542-12.3941a1.57675,1.57675,0,0,0-1.82458-1.27759L24.63434,27.66742l-0.3457.061-10.6781,1.88281a1.57678,1.57678,0,0,0-1.27759,1.82458l7.41479,42.05133a1.5767,1.5767,0,0,0,1.82458,1.27753ZM38.48846,25.58a1.22653,1.22653,0,0,1,1.41913.99371l2.19507,12.4491c-0.22021.0777-.43372,0.1424-0.647,0.20679-0.12518.03784-.25458,0.08435-0.37787,0.11774-0.35675.09656-.70709,0.17645-1.05481,0.23779A13.16938,13.16938,0,0,1,24.78418,28.91479c-0.05072-.28741-0.08264-0.57312-0.11029-0.84888l-0.00519-.04913ZM12.67767,31.375a1.22639,1.22639,0,0,1,.99365-1.41907l10.65051-1.878c0.00183,0.01868.00568,0.03925,0.00757,0.058,0.02765,0.2724.05945,0.55255,0.11,0.8396A13.51968,13.51968,0,0,0,40.08374,39.92975c0.35388-.06238.71063-0.1441,1.07306-0.24176,0.1189-.032.24359-0.07617,0.36407-0.11224,0.2135-.0639.42438-0.12183,0.64429-0.19867l1.22937,6.97211a17.72389,17.72389,0,0,0-3.34937-3.87439c-0.00128-.00525.00043-0.01031-0.001-0.01556l-0.2644-.9859a0.74682,0.74682,0,0,0-1.44257.38727l0.26447,0.9859a0.7171,0.7171,0,0,0,.07037.14514,45.74641,45.74641,0,0,0-1.9715,8.64264A8.938,8.938,0,0,0,29.816,46.004a0.17312,0.17312,0,0,0-.18427.09259,0.17551,0.17551,0,0,0,.03174.20367A5.07388,5.07388,0,1,1,21.07269,50.762l-1.57391-8.92639a2.21392,2.21392,0,0,0,1.24847-3.34631l2.84-5.18646a0.17509,0.17509,0,0,0-.2851-0.19958L19.40045,37.545a2.21744,2.21744,0,0,0-2.69727,2.54523l2.86841,16.26746a0.17565,0.17565,0,0,0,.01172.03888,8.89879,8.89879,0,0,0,4.16736,6.03015,6.97693,6.97693,0,0,0-1.13831,1.4093,26.42823,26.42823,0,0,0-4.24957-6.47583,0.73763,0.73763,0,0,0,.03937-0.2417L18.36694,56.098a0.748,0.748,0,0,0-.77222-0.7204,0.73676,0.73676,0,0,0-.616.39038Zm26.748,11.66113a0.39664,0.39664,0,0,1-.486-0.28046l-0.2644-.98553a0.39776,0.39776,0,0,1,.28009-0.48639l0.03406-.00739a0.39765,0.39765,0,0,1,.45233.28778l0.26434,0.9856A0.39765,0.39765,0,0,1,39.42572,43.03613ZM36.59888,61.02692a7.72883,7.72883,0,0,0-1.39935-.49664,8.99168,8.99168,0,0,0,1.20331-1.8761C36.44122,59.43652,36.50317,60.22809,36.59888,61.02692Zm-6.74524,2.22052A8.58558,8.58558,0,0,1,19.921,56.296a0.16428,0.16428,0,0,0-.0116-0.03821L17.04791,40.02948a1.87065,1.87065,0,1,1,2.2149,1.50336,0.17535,0.17535,0,0,0-.13727.2019l1.60248,9.088a5.425,5.425,0,1,0,9.54242-4.37311A8.57026,8.57026,0,0,1,29.85364,63.24744ZM19.76038,37.66565l2.758-3.13977L20.5108,38.19232A2.23172,2.23172,0,0,0,19.76038,37.66565ZM17.22443,56.13739a0.397,0.397,0,0,1,.32715-0.40405,0.3871,0.3871,0,0,1,.05518-0.00592,0.3977,0.3977,0,0,1,.41046.383l0.03516,1.02008a0.39665,0.39665,0,0,1-.79285.027ZM21.51154,74.42a1.22649,1.22649,0,0,1-1.41913-.99365L17.33862,57.80878a0.73036,0.73036,0,0,0,.34338.08154,0.76087,0.76087,0,0,0,.10431-0.0108,0.73911,0.73911,0,0,0,.3866-0.20441,25.16021,25.16021,0,0,1,4.25641,6.6402,0.17421,0.17421,0,0,0,.15778.11133,0.16868,0.16868,0,0,0,.16425-0.10181,6.14979,6.14979,0,0,1,1.31177-1.71106,8.97849,8.97849,0,0,0,.96533.45392c0.89966,1.44214,2.42468,4.64789,2.83,10.23315Zm6.69232-1.18005a23.33462,23.33462,0,0,0-2.63208-9.96326,8.85671,8.85671,0,0,0,3.11908.43536l0.94476,5.3653-1.03192.04877a0.17272,0.17272,0,0,0-.16656.18311,0.17506,0.17506,0,0,0,.18311.16656l0.65942-.03137-0.491.36646a0.17489,0.17489,0,1,0,.20911.2804l0.85876-.64093,0.52014,0.28845a0.175,0.175,0,1,0,.16949-0.30615l-0.54578-.30243-0.95612-5.42963c0.28882-.02222.579-0.05713,0.87018-0.10846,0.25885-.04565.51074-0.10742,0.76007-0.17413l1.15662,6.10162-0.493.57373a0.17487,0.17487,0,1,0,.26514.22809l0.2887-.336,0.05627,0.472a0.17486,0.17486,0,0,0,.19434.15314l0.00983-.00134a0.175,0.175,0,0,0,.14331-0.19293l-0.07635-.63849L33.02563,69.903a0.17512,0.17512,0,0,0,.05347-0.34613l-0.91193-.14124L31.01166,63.318a8.84029,8.84029,0,0,0,1.96472-.88452c0.258,2.50427.91235,6.71979,2.5105,9.52228Zm7.65125-1.34912c-1.653-2.81177-2.30341-7.18164-2.5481-9.66284a8.919,8.919,0,0,0,1.62378-1.39972,7.0279,7.0279,0,0,1,1.79681.66083,0.17486,0.17486,0,0,0,.25964-0.17493,33.86156,33.86156,0,0,1-.266-3.40979,8.85662,8.85662,0,0,0,.43274-4.65149c-0.0495-.28088-0.11633-0.55542-0.19135-0.82648a45.62653,45.62653,0,0,1,1.97876-9.136,0.7433,0.7433,0,0,0,.511.09784c0.02124-.00378.04266-0.00824,0.06384-0.014l0.00031-.00006a0.73411,0.73411,0,0,0,.493-0.46515,16.73109,16.73109,0,0,1,3.56006,4.4328l3.75275,21.28314a1.22645,1.22645,0,0,1-.99365,1.41913Z"/></svg>